ProbingFolikiinaSans-wt700.sfdir
StartChar: exclam
Encoding: 33 33 254
Width: 520
Flags: HW
HStem: -4 50<181.746 286.911> 189 50<12 150 194 285.328>
VStem: 112 54<61.1364 187.963> 304 56<62.8183 170.784>
LayerCount: 2
Fore
SplineSet
144 630 m 5
 144 680 l 5
 448 680 l 5
 448 630 l 5
 144 630 l 5
281 286 m 9
 192 286 l 1
 134 286 88 310 88 402 c 0
 88 402 88 669 88 814 c 29
 154 814 l 29
 154 666 154 395 154 395 c 3
 154 354 169 336 192 336 c 1
 282 336 l 17
 308 309 l 1
 281 286 l 9
282 239 m 1
 311 239 l 2
 392 239 440 187 440 116 c 0
 440 55 400 -4 319 -4 c 3
 240 -4 192 47 192 113 c 0
 192 170 214 199 232 217 c 2
 235 220 l 1
 278 197 l 1
 262 186 246 156 246 113 c 0
 246 77 267 46 316 46 c 3
 357 46 384 74 384 116 c 0
 384 162 352 189 312 189 c 2
 282 189 l 1
 282 239 l 1
142 239 m 1
 152 268 166 296 179 322 c 0
 218 400 249 469 324 469 c 0
 384 469 420 428 420 382 c 0
 420 322 372 286 321 286 c 2
 281 286 l 1
 282 336 l 1
 312 336 l 2
 341 336 364 354 364 380 c 0
 364 407 346 419 324 419 c 0
 292 419 274.900643729 390 233 309 c 0
 221.08062041 285.958116609 210 263 200 239 c 1
 282 239 l 1
 310 217 l 1
 282 189 l 1
 142 189 l 1
 142 239 l 1
EndSplineSet
EndChar
StartChar: parenright
Encoding: 41 41 261
Width: 510
Flags: HW
LayerCount: 2
Fore
SplineSet
437 242 m 0
 437 -30.513671875 281.618164062 -182 169 -182 c 3
 90.4482421875 -182 61 -135.181640625 61 -44 c 3
 61 49.046875 87.5439453125 112 152 112 c 3
 175.626953125 112 195 109 209 100 c 1
 208.513671875 45.7919921875 l 1
 198.513671875 45.79296875 l 1
 188 51 177.125 54 162 54 c 3
 137.844726562 54 121 31.1494140625 121 -44 c 3
 121 -114.438476562 146.584960938 -124 171 -124 c 3
 251.146484375 -124 377 1.98828125 377 242 c 0
 377 468.100585938 273.614257812 648.14453125 91 724 c 1
 91 734 l 1
 201 734 l 1
 346 646 437 490.05078125 437 242 c 0
EndSplineSet
EndChar
StartChar: plus
Encoding: 43 43 250
Width: 440
Flags: HW
HStem: 600 50<33 267>
VStem: 123 54<280 764>
LayerCount: 2
Fore
SplineSet
193 445 m 1
 247 445 l 1
 247 101 l 1
 193 101 l 1
 193 445 l 1
53 251 m 1
 53 301 l 1
 387 301 l 1
 387 251 l 1
 53 251 l 1
EndSplineSet
EndChar
StartChar: two
Encoding: 50 50 270
Width: 600
Flags: HW
LayerCount: 2
Back
SplineSet
370 776 m 25
 370 -62 l 1049
EndSplineSet
Fore
SplineSet
293 734 m 1
 541 544 l 1
 541 492 l 1
 142 216 l 1
 397 10 l 1
 397 0 l 25
 305 0 l 1
 61 192 l 1
 61 242 l 1
 465 520 l 1
 200 724 l 1
 200 734 l 25
 293 734 l 1
EndSplineSet
EndChar
StartChar: three
Encoding: 51 51 269
Width: 600
Flags: HW
HStem: -4 60<163.213 398.994> 603 66<431.98 491> 646 60<197.313 434.37>
VStem: 80 66<467.834 597.373> 462 66<112.856 252.873>
LayerCount: 2
Fore
SplineSet
526 532 m 3xb8
 526 299 144 383 144 187 c 3
 144 105 209 56 299 56 c 3
 373 56 461 77 518 109 c 1
 528 109 l 1
 528 41 l 1
 480 15 402 -4 309 -4 c 3
 146 -4 78 72 78 182 c 3
 78 442 460 348 460 527 c 3
 460 611 392 646 314 646 c 3
 231 646 170 628 125 603 c 1xd8
 115 603 l 1
 115 669 l 1
 159 690 227 706 308 706 c 3xb8
 432 706 526 655 526 532 c 3xb8
EndSplineSet
EndChar
StartChar: six
Encoding: 54 54 252
Width: 670
Flags: HW
HStem: 0 21G<92 158 424 490> 450 60<255.211 388.548>
VStem: 92 66<0 333 361 506> 424 66<0 411.162>
LayerCount: 2
Fore
SplineSet
645 486 m 1xce
 295 146 l 1
 252 146 l 1
 252 156 l 1
 564 506 l 1
 645 506 l 1
 645 486 l 1xce
158 384 m 1
 158 0 l 1
 92 0 l 1
 92 506 l 1
 144 506 l 1
 462 122 l 1
 462 734 l 5
 528 734 l 5
 528 0 l 1
 476 0 l 1
 158 384 l 1
EndSplineSet
EndChar
StartChar: eight
Encoding: 56 56 272
Width: 601
Flags: HW
LayerCount: 2
Fore
SplineSet
148.504882812 439 m 1
 92.7109375 471 l 1
 132.096679688 638 254.369140625 738 433 738 c 3
 470 738 503 735 525 729 c 1
 525 665 l 1
 515 665 l 1
 494 675.981445312 467 678 427 678 c 3
 295.149414062 678 180 591 148.504882812 439 c 1
489 400 m 1xea
 489 340 l 1
 119 340 l 1
 119 400 l 1
 489 400 l 1xea
148.504882812 295 m 1
 180 143 296.149414062 56 431 56 c 3
 467 56 494 58.0185546875 515 69 c 1
 525 69 l 1
 525 5 l 1
 503 -1 470 -4 429 -4 c 3
 252.369140625 -4 132.096679688 96 92.7109375 263 c 1
 148.504882812 295 l 1
153 0 m 1
 87 0 l 1
 87 734 l 1
 153 734 l 1xb0
 153 0 l 1
EndSplineSet
EndChar
StartChar: nine
Encoding: 57 57 273
Width: 550
Flags: HW
VStem: 67 66<110.308 445.692>
LayerCount: 2
Fore
SplineSet
92 332 m 25xea
 92 392 l 25
 452 392 l 25
 452 332 l 25
 92 332 l 25xea
483 364 m 3
 483 155 303 52 172 -2 c 1
 94 -2 l 1
 94 15 l 1
 222 80 417 160 417 364 c 3
 417 568 232 650 94 715 c 1
 94 732 l 1
 172 732 l 1
 303 678 483 573 483 364 c 3
67 366 m 3
 67 575 247 678 378 732 c 1
 456 732 l 1
 456 715 l 1
 328 650 133 570 133 366 c 3
 133 162 318 80 456 15 c 1
 456 -2 l 1
 378 -2 l 1
 247 52 67 157 67 366 c 3
EndSplineSet
EndChar
StartChar: colon
Encoding: 58 58 258
Width: 400
Flags: HW
HStem: 412 50<106.672 198 242 380> 605 50<105.089 210.254>
VStem: 32 56<480.216 588.182> 226 54<463.037 589.864>
LayerCount: 2
Fore
SplineSet
156 605 m 3
 115 605 88 577 88 535 c 0
 88 489 120 462 160 462 c 2
 380 462 l 1
 380 412 l 1
 161 412 l 2
 80 412 32 464 32 535 c 0
 32 596 72 655 153 655 c 3
 232 655 280 604 280 538 c 0
 280 481 250 443 232 425 c 2
 229 422 l 1
 178 449 l 1
 196 457 226 495 226 538 c 0
 226 574 205 605 156 605 c 3
244 46 m 7
 285 46 312 74 312 116 c 4
 312 162 280 189 240 189 c 6
 20 189 l 5
 20 239 l 5
 239 239 l 6
 320 239 368 187 368 116 c 4
 368 55 328 -4 247 -4 c 7
 168 -4 120 47 120 113 c 4
 120 170 150 208 168 226 c 6
 171 229 l 5
 222 202 l 5
 204 194 174 156 174 113 c 4
 174 77 195 46 244 46 c 7
EndSplineSet
EndChar
StartChar: semicolon
Encoding: 59 59 259
Width: 400
Flags: HW
HStem: -177 237
VStem: 33 228
LayerCount: 2
Fore
SplineSet
244 456 m 3
 285 456 312 484 312 526 c 0
 312 572 280 599 240 599 c 2
 20 599 l 1
 20 649 l 1
 239 649 l 2
 320 649 368 597 368 526 c 0
 368 465 328 406 247 406 c 3
 168 406 120 457 120 523 c 0
 120 580 150 618 168 636 c 2
 171 639 l 1
 222 612 l 1
 204 604 174 566 174 523 c 0
 174 487 195 456 244 456 c 3
311 40 m 1
 131 -177 l 1
 83 -177 l 1
 83 -167 l 1
 225 60 l 1
 311 60 l 1
 311 40 l 1
EndSplineSet
EndChar
StartChar: less
Encoding: 60 60 244
Width: 400
Flags: HW
HStem: 0 21G<236.407 329 446.407 539>
LayerCount: 2
Fore
SplineSet
52 266 m 1
 324 506 l 1
 334 506 l 1
 334 432 l 1
 127.314453125 253 l 1
 334 74 l 1
 334 0 l 1
 324 0 l 1
 52 241 l 1
 52 266 l 1
EndSplineSet
EndChar
StartChar: B
Encoding: 66 66 74
Width: 560
Flags: HW
HStem: 419 67<406.75 476> 451 55<222.083 443.908>
VStem: 67 66<159.955 351.529> 285 66<-178 6.25551>
LayerCount: 2
Fore
SplineSet
164 506 m 1x70
 486 140 l 1
 486 -4 l 1
 476 -4 l 1
 35 496 l 1
 35 506 l 1
 164 506 l 1x70
371 -178 m 1
 245 -178 l 1
 245 1.7255859375 l 1
 157 30.67578125 67 99.212890625 67 253 c 0
 67 436 208 511 330 511 c 0
 386 511 430 502 476 486 c 1
 476 359 l 1
 467 359 l 1xb0
 421 379 385 391 328 391 c 0
 248 391 193 345 193 260 c 0
 193 174.412109375 258 124.4609375 371 116.001953125 c 1
 371 -178 l 1
EndSplineSet
EndChar
StartChar: F
Encoding: 70 70 78
Width: 520
Flags: W
HStem: -182 60<76.048 254.677> -163 63<75 201.846> 34 64<65 127.651> 641 64<350.023 406> 680 60<170.03 363.543>
VStem: 65 66<509.621 640.971> 263 64<-111.38 -29.905> 372 66<98.0838 232.895>
LayerCount: 2
Fore
SplineSet
327 -80 m 0xa7
 327 -143.346679688 278.956054688 -185 204 -185 c 0xa7
 158 -185 118 -179 75 -166 c 1
 75 -44 l 1
 89 -44 l 1x67
 130 -60 158 -65 174 -65 c 0
 193.841796875 -65 203 -56.791015625 203 -41 c 0
 203 -25.2275390625 198 -5.4453125 129 13 c 1
 130 93 l 1
 243 61 327 -2 327 -80 c 0xa7
62 549 m 3
 62 664 154 743 267 743 c 3x2f
 332 743 379 729 422 708 c 1
 422 584 l 1
 412 584 l 1x37
 368 611 318 623 270 623 c 3x2f
 238 623 188 593 188 542 c 3
 188 414 461 414 461 194 c 3
 461 98 398 -4 247 -4 c 3
 180 -4 118 12 70 34 c 1
 70 158 l 1
 80 158 l 1
 137 130 199 116 247 116 c 3
 291 116 335 154 335 200 c 3
 335 328 62 329 62 549 c 3
EndSplineSet
EndChar
StartChar: I
Encoding: 73 73 81
Width: 510
Flags: W
HStem: -4 63<329.546 422> 442 60<35 236>
VStem: 236 66<88.7541 442>
LayerCount: 2
Fore
SplineSet
447 -4.8935546875 m 1
 429.87890625 -7.568359375 424.828125 -8 401 -8 c 3
 315 -8 231 34 231 154 c 2
 231 382 l 1
 50 384 l 1
 50 502 l 1
 357 502 l 1
 357 180 l 2
 357 139 385.376953125 115 418 115 c 3
 433.893554688 115 445.220703125 115.328125 458 118.532226562 c 1
 458 108.532226562 l 25
 447 -4.8935546875 l 1
EndSplineSet
EndChar
StartChar: J
Encoding: 74 74 82
Width: 680
Flags: W
HStem: 4 60<84 646> 680 60<258.748 411.911>
VStem: 148 70<506 642.032> 471 66<412.766 614.827>
LayerCount: 2
Fore
SplineSet
148 571 m 0
 148 677 228 740 340 740 c 0
 457.602539062 740 537 657.9921875 537 527 c 0
 537 306.9296875 352 108 36 10 c 1
 36 79 l 1
 320 172 471 356.037109375 471 518 c 0
 471 620.065429688 416.765625 680 340 680 c 0
 263 680 214 637.001953125 214 567 c 3
 214 544.999023438 215 532 218 516 c 1
 218 506 l 1
 154 506 l 1
 149 525 148 546 148 571 c 0
36 4 m 1
 36 10 l 1
 84 64 l 1
 660 64 l 1
 660 54 l 1
 646 4 l 1
 36 4 l 1
EndSplineSet
EndChar
StartChar: K
Encoding: 75 75 83
Width: 690
Flags: W
HStem: 0 21G<456 522> 714 20G<456 522>
VStem: 96 66<64 476> 456 66<0 440 453 734>
LayerCount: 2
Fore
SplineSet
578 425 m 1
 281 39 l 1
 135 39 l 1
 135 52 l 1
 465 476 l 1
 578 438 l 1
 578 425 l 1
587 -8 m 1
 461 -8 l 1
 461 734 l 1
 587 734 l 1
 587 -8 l 1
135 39 m 1
 101 39 l 1
 101 468 l 1
 227 468 l 17
 227 103 l 1
 135 39 l 1
EndSplineSet
EndChar
StartChar: P
Encoding: 80 80 20
Width: 670
Flags: W
HStem: -6 60<250.643 423.467> 211 60<309.688 506.854> 450 60<304.646 445.946> 680 60<383.678 535>
VStem: 68 66<186.606 449.812> 208 67<302.246 420.565> 510 66<151.651 379.168>
LayerCount: 2
Fore
SplineSet
364 510 m 3
 499 510 576 424 576 268 c 0
 576 114 491 -6 337 -6 c 0
 174 -6 68 115 68 309 c 0
 68 585 258 740 525 740 c 9
 535 740 l 1
 535 680 l 1
 300 680 134 560 134 314 c 0
 134 153 216 54 337 54 c 0
 453 54 510 145 510 263 c 0
 510 389 461 450 367 450 c 3
 311 450 275 410 275 363 c 3
 275 287 338 271 414 271 c 3
 488.802734375 271 574 274 623 280 c 1
 623 270 l 1
 613 220 l 1
 559 213 493.411132812 211 410 211 c 3
 319 211 208 240 208 361 c 3
 208 454 281 510 364 510 c 3
EndSplineSet
EndChar
StartChar: Q
Encoding: 81 81 88
Width: 1000
Flags: W
HStem: 62 66<365.575 623.374>
VStem: 32 73<423.829 506> 899 69<432.297 506>
LayerCount: 2
Fore
SplineSet
486 62 m 3
 270 62 79 230 32 496 c 1
 32 506 l 1
 105 506 l 1
 143 298 281 128 492 128 c 3
 703 128 851 264 899 506 c 1
 968 506 l 1
 968 496 l 1
 916 214 727 62 486 62 c 3
40 -168 m 1
 474 363 l 1
 504 363 l 1
 960 -168 l 1
 960 -178 l 1
 873 -178 l 1
 488 269 l 1
 126 -178 l 1
 40 -178 l 1
 40 -168 l 1
EndSplineSet
EndChar
StartChar: R
Encoding: 82 82 89
Width: 670
Flags: W
HStem: -4 60<243.71 440.076> 454 60<375.65 483.024>
VStem: 67 66<167.395 423.527> 309 66<-177 453.012> 542 66<162.931 385.704>
LayerCount: 2
Fore
SplineSet
409 514 m 3
 519 514 608 442 608 280 c 3
 608 73 469 -4 338 -4 c 3
 203 -4 67 81 67 268 c 3
 67 368 88 444 122 506 c 1
 187 506 l 1
 187 492 l 1
 154 440 133 366 133 270 c 3
 133 120 238 56 341 56 c 3
 447 56 542 118 542 273 c 3
 542 409 479 454 418 454 c 3
 402 454 387 453 375 447 c 9
 375 -177 l 1
 309 -177 l 1
 309 497 l 17
 336 508 374 514 409 514 c 3
EndSplineSet
EndChar
StartChar: T
Encoding: 84 84 72
Width: 466
Flags: W
HStem: 0 21G<169 235> 662 21G<8 451> 679 43G<8 451>
VStem: 169 66<0 376.808>
LayerCount: 2
Fore
SplineSet
451 699 m 1x90
 451 629 l 1
 274 519 235 386 235 154 c 2
 235 0 l 1
 169 0 l 1
 169 164 l 2
 169 406 206 562 451 699 c 1x90
8 662 m 1xd0
 8 722 l 1
 451 722 l 1xb0
 451 662 l 1
 8 662 l 1xd0
EndSplineSet
EndChar
StartChar: Y
Encoding: 89 89 94
Width: 600
Flags: W
HStem: 81 60<95 400.844> 365 60<199.156 505> 490 20G<474 540>
VStem: 60 66<-4 81 141 281.406> 95 31<81 141> 474 66<224.594 365 425 510> 474 31<365 425>
LayerCount: 2
Fore
SplineSet
474 510 m 1xec
 540 510 l 1
 540 335 l 2
 540 201 472 81 317 81 c 2
 95 81 l 1
 95 141 l 1
 327 141 l 2
 424 141 474 229 474 325 c 2
 474 510 l 1xec
126 -4 m 1xf2
 60 -4 l 1
 60 171 l 2
 60 305 128 425 283 425 c 2
 505 425 l 1
 505 365 l 1
 273 365 l 2
 176 365 126 277 126 181 c 2
 126 -4 l 1xf2
EndSplineSet
EndChar
StartChar: bracketright
Encoding: 93 93 263
Width: 400
Flags: HW
HStem: -94 50<163 397>
VStem: 253 54<-208 276>
LayerCount: 2
Fore
SplineSet
257 730 m 1
 282 680 l 1
 53 680 l 1
 53 730 l 1
 257 730 l 1
317 -174 m 1
 257 -174 l 1
 257 730 l 1
 317 730 l 1
 317 -174 l 1
287 -124 m 1
 257 -174 l 1
 53 -174 l 1
 53 -124 l 1
 287 -124 l 1
EndSplineSet
EndChar
StartChar: asciicircum
Encoding: 94 94 249
Width: 470
Flags: HW
LayerCount: 2
Fore
SplineSet
250 776 m 1
 398 632 l 1
 398 557 l 1
 388 557 l 1
 238 708 l 5
 82 557 l 1
 72 557 l 1
 72 632 l 1
 226 776 l 1
 250 776 l 1
EndSplineSet
EndChar
StartChar: underscore
Encoding: 95 95 247
Width: 500
Flags: HW
HStem: 230 50<53 317>
VStem: 53 264<230 280>
LayerCount: 2
Fore
SplineSet
53 0 m 1
 53 50 l 1
 447 50 l 1
 447 0 l 1
 53 0 l 1
EndSplineSet
EndChar
StartChar: a
Encoding: 97 97 9
GlifName: a
Width: 600
Flags: W
HStem: -4 60<219.765 387.261> 214 60<286 447> 416 61<409.56 470> 450 60<223.984 434.182>
VStem: 72 66<143.723 361.292> 447 68<114.011 214>
LayerCount: 2
Fore
SplineSet
485 480 m 1xec
 485 359 l 1
 473 359 l 1xec
 432 383 367 393 319 393 c 3
 242 393 188 342 188 255 c 3
 188 158.6484375 246 113 310 113 c 3
 370.006835938 113 402.734375 135 407 178 c 1
 407 190 l 1
 306 190 l 1
 306 310 l 1
 533 310 l 1
 534 290 535 221.301757812 535 193 c 3
 535 74.0087890625 444.076171875 -7 310 -7 c 3
 175 -7 62 75 62 252 c 3
 62 431 184 513 323 513 c 3xdc
 385 513 444 501 485 480 c 1xec
EndSplineSet
EndChar
StartChar: e
Encoding: 101 101 0
GlifName: e
Width: 570
Flags: HW
HStem: 216 75<20 130.232 419.768 530> 241 25<20 196.501 353.499 530>
VStem: 234 82<-19 108.975 398.025 526> 260 30<-19 151.403 355.597 526>
LayerCount: 2
Back
SplineSet
535 266 m 5x50
 535 166 l 5
 444.767578125 166 376 112.974609375 376 -5 c 5xa0
 270 -5 l 5
 270 195.403320312 328.499023438 266 535 266 c 5x50
535 241 m 5x60
 328.499023438 241 270 300.596679688 270 511 c 5x50
 376 511 l 5
 376 393.025390625 444.767578125 341 535 341 c 5xa0
 535 241 l 5x60
35 266 m 5
 241.500976562 266 300 195.403320312 300 -5 c 5x50
 194 -5 l 5
 194 112.974609375 125.232421875 166 35 166 c 5xa0
 35 266 l 5
35 241 m 5
 35 341 l 5
 125.232421875 341 194 393.025390625 194 511 c 5xa0
 300 511 l 5
 300 300.596679688 241.500976562 241 35 241 c 5
EndSplineSet
Fore
SplineSet
35 241 m 1
 35 266 l 1
 35 341 l 1
 125.232421875 341 194 393.025390625 194 511 c 1
 270 511 l 1
 300 511 l 1
 376 511 l 1
 376 393.025390625 444.767578125 341 535 341 c 1
 535 266 l 1
 535 241 l 1
 535 166 l 1
 444.767578125 166 376 112.974609375 376 -5 c 1
 300 -5 l 1
 270 -5 l 1
 194 -5 l 1
 194 112.974609375 125.232421875 166 35 166 c 1
 35 241 l 1
160.174199057 252.760592059 m 1
 228.014496893 234.540356616 266.236901684 196.412135149 285.000000007 131.65559447 c 1
 303.76309826 196.412135164 341.985503083 234.540356623 409.825801062 252.760592061 c 1
 341.985503057 269.310545418 303.763098219 305.005008202 285 370.196315075 c 1
 266.236901789 305.005008228 228.014496983 269.310545448 160.174199057 252.760592059 c 1
EndSplineSet
EndChar
StartChar: k
Encoding: 107 107 8
GlifName: k
Width: 690
Flags: HW
HStem: 0 21G<456 522> 714 20G<456 522>
VStem: 96 66<64 476> 456 66<0 440 453 734>
LayerCount: 2
Fore
SplineSet
578 425 m 1
 281 39 l 1
 135 39 l 1
 135 52 l 1
 465 476 l 1
 578 438 l 1
 578 425 l 1
587 -8 m 1
 461 -8 l 1
 461 734 l 1
 587 734 l 1
 587 -8 l 1
135 39 m 1
 101 39 l 1
 101 468 l 1
 227 468 l 17
 227 103 l 1
 135 39 l 1
EndSplineSet
Validated: 5
EndChar
StartChar: l
Encoding: 108 108 13
GlifName: l
Width: 510
Flags: HW
HStem: -8 60<36.1288 240.428> 8 64<35 157.85> 236 60<312 442> 714 20G<288 354>
VStem: 288 66<106.806 236 296 734> 312 42<236 296>
LayerCount: 2
Fore
SplineSet
337 190 m 25x34
 337 310 l 25
 467 310 l 25
 467 190 l 25
 337 190 l 25x34
379 734 m 25xb8
 379 233 l 3
 379 65.888671875 312.048828125 -10 165 -10 c 3xb8
 118.940429688 -10 85 -5 40 6 c 1
 40 130 l 1
 50 130 l 1x78
 84 117 117.568359375 110 157 110 c 3
 207.088867188 110 253 136.838867188 253 229 c 0
 253 734 l 25
 379 734 l 25xb8
EndSplineSet
Validated: 5
EndChar
StartChar: n
Encoding: 110 110 14
GlifName: n
Width: 610
Flags: HW
HStem: -4 60<200.941 371.552> 450 60<216.088 408.643>
VStem: 62 66<136.426 354.985> 410 66<-178 35 89.4216 440.356>
LayerCount: 2
Fore
SplineSet
273 -7 m 0
 166 -7 57 63 57 241 c 0
 57 448 179 516 304 516 c 0
 374 516 459 504 511 489 c 1
 511 -178 l 1
 385 -178 l 1
 385 29 l 1
 367 6 326 -7 273 -7 c 0
385 386 m 1
 359 393 336 396 302 396 c 0
 225 396 183 342 183 246 c 0
 183 161 226 113 285 113 c 0
 330 113 362 130.786132812 385 163 c 1
 385 386 l 1
EndSplineSet
Validated: 1
EndChar
StartChar: o
Encoding: 111 111 2
GlifName: o
Width: 540
Flags: HW
HStem: -4 60<217.087 407.518> 29 61<385.981 443> 418 67<371.75 441> 450 60<213.585 408.908>
VStem: 62 66<149.777 356.678>
LayerCount: 2
Fore
SplineSet
458 26 m 1x48
 417 5 361 -7 306 -7 c 3
 172 -7 57 69 57 249 c 3
 57 422 168 513 300 513 c 3x98
 356 513 410 504 456 488 c 1
 456 361 l 1
 447 361 l 1x28
 406 382 364 393 307 393 c 3
 237 393 183 336 183 251 c 3
 183 159 244 113 317 113 c 3x98
 363 113 409 122 446 147 c 1
 458 147 l 1
 458 26 l 1x48
EndSplineSet
Validated: 1
EndChar
StartChar: u
Encoding: 117 117 3
Width: 590
Flags: W
HStem: -4 60<215.907 377.084> 450 60<212.515 373.717>
VStem: 62 66<146.581 356.678> 462 66<149.322 359.419>
LayerCount: 2
Fore
SplineSet
299 -4 m 7
 176 -4 62 69 62 249 c 7
 62 422 169 510 290 510 c 7
 414 510 528 437 528 257 c 7
 528 84 421 -4 299 -4 c 7
288 450 m 7
 199 450 128 376 128 251 c 7
 128 119 209 56 301 56 c 7
 391 56 462 130 462 255 c 7
 462 387 381 450 288 450 c 7
EndSplineSet
EndChar
StartChar: v
Encoding: 118 118 24
Width: 630
Flags: W
HStem: 224 60<176.06 301.519> 655 65<386.832 495> 680 60<266.547 476.689>
VStem: 75 66<-178 183.099> 162 66<488.914 642.342>
LayerCount: 2
Fore
SplineSet
340 680 m 3xb8
 278 680 228 644 228 581 c 3
 228 533 246.151367188 488 289 414 c 2
 626 -168 l 1
 627 -178 l 1
 558 -178 l 1
 239 372 l 2
 190.280273438 456 162 498 162 580 c 3
 162 683 241 740 340 740 c 3xb8
 397 740 465 730 495 720 c 1
 495 655 l 1
 485 655 l 1xd8
 443 671 387 680 340 680 c 3xb8
237 224 m 3
 172 224 141 179 141 70 c 2
 141 -178 l 1
 75 -178 l 1
 75 90 l 2
 75 228 137 284 227 284 c 3
 315 284 390 211 427 155 c 1
 391 111 l 1
 355 178 301 224 237 224 c 3
EndSplineSet
EndChar
StartChar: braceleft
Encoding: 123 123 265
Width: 390
Flags: HW
LayerCount: 2
Fore
SplineSet
312 680 m 5
 234 680 166 647 166 576 c 4
 166 450 236 395 236 293 c 5
 176 297 l 5
 176 385 106 453 106 570 c 4
 106 693 202 738 302 738 c 5
 312 738 l 5
 312 680 l 5
63 249 m 5
 63 307 l 5
 307 307 l 5
 307 249 l 5
 63 249 l 5
312 -124 m 5
 312 -182 l 5
 302 -182 l 5
 202 -182 106 -137 106 -14 c 4
 106 103 176 171 176 259 c 5
 236 263 l 5
 236 161 166 96 166 -20 c 4
 166 -91 234 -124 312 -124 c 5
EndSplineSet
EndChar
StartChar: bar
Encoding: 124 124 264
Width: 230
Flags: HW
LayerCount: 2
Fore
SplineSet
85 730 m 1
 145 730 l 1
 145 -174 l 1
 85 -174 l 1
 85 730 l 1
EndSplineSet
EndChar
StartChar: braceright
Encoding: 125 125 266
Width: 390
Flags: HW
LayerCount: 2
Fore
SplineSet
78 -124 m 1
 156 -124 224 -91 224 -20 c 0
 224 106 154 161 154 263 c 1
 214 259 l 1
 214 171 284 103 284 -14 c 0
 284 -137 188 -182 88 -182 c 1
 78 -182 l 1
 78 -124 l 1
327 307 m 1
 327 249 l 1
 83 249 l 1
 83 307 l 1
 327 307 l 1
78 680 m 1
 78 738 l 1
 88 738 l 1
 188 738 284 693 284 570 c 0
 284 453 214 385 214 297 c 1
 154 293 l 1
 154 395 224 460 224 576 c 0
 224 647 156 680 78 680 c 1
EndSplineSet
EndChar
StartChar: exclamdown
Encoding: 161 161 255
Width: 520
Flags: HW
HStem: -4 50<181.746 286.911> 189 50<12 150 194 285.328>
VStem: 112 54<61.1364 187.963> 304 56<62.8183 170.784>
LayerCount: 2
Fore
SplineSet
376 -44 m 5
 376 -94 l 5
 72 -94 l 5
 72 -44 l 5
 376 -44 l 5
239 365 m 9
 328 365 l 1
 386 365 432 341 432 249 c 0
 432 249 432 -83 432 -228 c 25
 366 -228 l 25
 366 -80 366 256 366 256 c 3
 366 297 351 315 328 315 c 1
 238 315 l 17
 212 342 l 1
 239 365 l 9
238 412 m 1
 209 412 l 2
 128 412 80 464 80 535 c 0
 80 596 120 655 201 655 c 3
 280 655 328 604 328 538 c 0
 328 481 306 452 288 434 c 2
 285 431 l 1
 242 454 l 1
 258 465 274 495 274 538 c 0
 274 574 253 605 204 605 c 3
 163 605 136 577 136 535 c 0
 136 489 168 462 208 462 c 2
 238 462 l 1
 238 412 l 1
378 412 m 1
 368 383 354 355 341 329 c 0
 302 251 271 182 196 182 c 0
 136 182 100 223 100 269 c 0
 100 329 148 365 199 365 c 2
 239 365 l 1
 238 315 l 1
 208 315 l 2
 179 315 156 297 156 271 c 0
 156 244 174 232 196 232 c 0
 228 232 245.099609375 261 287 342 c 0
 298.918945312 365.041992188 310 388 320 412 c 1
 238 412 l 1
 210 434 l 1
 238 462 l 1
 378 462 l 1
 378 412 l 1
EndSplineSet
EndChar
StartChar: guillemotleft
Encoding: 171 171 51
Width: 580
Flags: W
HStem: 0 21G<236.407 329 446.407 539>
LayerCount: 2
Fore
SplineSet
252 266 m 5
 464 506 l 5
 539 506 l 5
 539 496 l 5
 324.314453125 253 l 5
 539 10 l 5
 539 0 l 5
 464 0 l 5
 252 241 l 5
 252 266 l 5
42 266 m 1
 254 506 l 1
 329 506 l 1
 329 496 l 1
 114.314453125 253 l 1
 329 10 l 1
 329 0 l 1
 254 0 l 1
 42 241 l 1
 42 266 l 1
EndSplineSet
EndChar
StartChar: guillemotright
Encoding: 187 187 52
Width: 580
Flags: W
HStem: 0 21G<41 133.667 251 343.667>
LayerCount: 2
Fore
SplineSet
328 240 m 1
 116 0 l 1
 41 0 l 1
 41 10 l 1
 255.685546875 253 l 1
 41 496 l 1
 41 506 l 1
 116 506 l 1
 328 265 l 1
 328 240 l 1
538 240 m 1
 326 0 l 1
 251 0 l 1
 251 10 l 1
 465.685546875 253 l 1
 251 496 l 1
 251 506 l 1
 326 506 l 1
 538 265 l 1
 538 240 l 1
EndSplineSet
EndChar
StartChar: Atilde
Encoding: 195 195 97
Width: 570
Flags: HW
HStem: -4 60<210.383 379.016> 220 60<276 437> 416 61<399.56 460> 450 60<213.984 424.182> 541 50<232.647 336.757> 734 50<230.243 334.353>
VStem: 62 66<144.832 361.292> 158 56<609.216 717.182> 354 54<607.818 715.784> 437 68<112.073 220>
LayerCount: 2
Fore
SplineSet
287 541 m 7xcfc0
 206 541 158 593 158 664 c 4
 158 725 201 784 279 784 c 7
 360 784 408 732 408 661 c 4
 408 600 365 541 287 541 c 7xcfc0
282 734 m 7
 241 734 214 706 214 664 c 4
 214 618 246 591 286 591 c 7
 327 591 354 619 354 661 c 4
 354 707 322 734 282 734 c 7
460 477 m 1xefc0
 460 416 l 1
 448 416 l 1xefc0
 407 440 352 450 304 450 c 3
 207 450 128 392 128 255 c 3
 128 109 211 56 295 56 c 3
 375 56 435 104 442 168 c 1
 442 220 l 1
 281 220 l 1
 281 280 l 1
 508 280 l 1
 509 260 510 211 510 183 c 3
 510 74 411 -4 290 -4 c 3
 178 -4 62 80 62 252 c 3
 62 431 179 510 308 510 c 3xdfc0
 365 510 419 498 460 477 c 1xefc0
EndSplineSet
EndChar
StartChar: Ccedilla
Encoding: 199 199 44
Width: 650
Flags: W
HStem: -4 60<206.997 398.62> 155 60<242.371 393.078> 680 60<64 528> 698 20G<514.102 550.105>
VStem: 501 66<152.422 362.155> 509 66<-178 -81.5476> 517 66<-177.262 35.1056>
LayerCount: 2
Fore
SplineSet
509 -168 m 1xc4
 514 -147 517 -113 517 -80 c 0xc2
 517 78 426 155 278 155 c 3
 238 155 193 142 193 110 c 3
 193 65 247 56 307 56 c 3
 401 56 501 122 501 254 c 3
 501 359.938058375 454.624494991 422.077028686 381.0000049 442.484642816 c 9
 408.999994936 499.750036797 l 17
 503.310965795 474.602672065 567 401.207825933 567 258 c 3xc8
 567 76 435 -4 302 -4 c 3
 211 -4 127 25 127 115 c 3
 127 122.427806321 127.930674724 129.426070461 129.683847638 136.000005748 c 1
 211.999998173 205.908128186 l 1
 232.885192146 212.007505794 255.676384683 215 278 215 c 3
 470 215 583 102 583 -80 c 0xc2
 583 -111 580 -150 575 -178 c 1
 509 -178 l 25
 509 -168 l 1xc4
570 680 m 1xe0
 570 666 l 1
 108 0 l 1
 36 0 l 1
 36 10 l 1
 528 718 l 1xd0
 570 680 l 1xe0
64 680 m 1xe0
 64 740 l 1
 570 740 l 1
 570 680 l 1
 64 680 l 1xe0
EndSplineSet
EndChar
StartChar: Oacute
Encoding: 211 211 104
Width: 520
Flags: W
HStem: -4 60<217.087 407.518> 29 61<385.981 443> 418 67<371.75 441> 450 60<213.585 408.908> 586 21G<182 247.5>
VStem: 62 66<149.777 356.678>
LayerCount: 2
Fore
SplineSet
405 746 m 5x0c
 225 586 l 5
 182 586 l 5
 182 596 l 5
 324 766 l 5
 405 766 l 5
 405 746 l 5x0c
443 29 m 1x4c
 402 8 356 -4 301 -4 c 3
 177 -4 62 69 62 249 c 3
 62 422 173 510 295 510 c 3x9c
 351 510 395 501 441 485 c 1
 441 418 l 1
 432 418 l 1x2c
 386 438 350 450 293 450 c 3
 203 450 128 376 128 251 c 3
 128 119 210 56 303 56 c 3x9c
 349 56 390 66 431 90 c 1
 443 90 l 1
 443 29 l 1x4c
EndSplineSet
EndChar
StartChar: Ugrave
Encoding: 217 217 219
Width: 590
Flags: HW
HStem: -4 60<215.907 377.084> 450 60<212.515 373.717> 586 21G<192 257.5>
VStem: 62 66<146.581 356.678> 462 66<149.322 359.419>
LayerCount: 2
Fore
SplineSet
172 746 m 5
 172 766 l 5
 253 766 l 5
 395 596 l 5
 395 586 l 5
 352 586 l 5
 172 746 l 5
299 -4 m 3
 176 -4 62 69 62 249 c 3
 62 422 169 510 290 510 c 3
 414 510 528 437 528 257 c 3
 528 84 421 -4 299 -4 c 3
288 450 m 3
 199 450 128 376 128 251 c 3
 128 119 209 56 301 56 c 3
 391 56 462 130 462 255 c 3
 462 387 381 450 288 450 c 3
EndSplineSet
EndChar
StartChar: atilde
Encoding: 227 227 56
Width: 570
Flags: W
HStem: -4 60<210.383 379.016> 220 60<276 437> 416 61<399.56 460> 450 60<213.984 424.182> 541 50<232.647 336.757> 734 50<230.243 334.353>
VStem: 62 66<144.832 361.292> 158 56<609.216 717.182> 354 54<607.818 715.784> 437 68<112.073 220>
LayerCount: 2
Fore
SplineSet
287 541 m 3xcfc0
 206 541 158 593 158 664 c 0
 158 725 201 784 279 784 c 3
 360 784 408 732 408 661 c 0
 408 600 365 541 287 541 c 3xcfc0
282 734 m 3
 241 734 214 706 214 664 c 0
 214 618 246 591 286 591 c 3
 327 591 354 619 354 661 c 0
 354 707 322 734 282 734 c 3
460 477 m 1xefc0
 460 416 l 1
 448 416 l 1xefc0
 407 440 352 450 304 450 c 3
 207 450 128 392 128 255 c 3
 128 109 211 56 295 56 c 3
 375 56 435 104 442 168 c 5
 442 220 l 5
 281 220 l 5
 281 280 l 5
 508 280 l 5
 509 260 510 211 510 183 c 7
 510 74 411 -4 290 -4 c 3
 178 -4 62 80 62 252 c 3
 62 431 179 510 308 510 c 3xdfc0
 365 510 419 498 460 477 c 1xefc0
EndSplineSet
EndChar
StartChar: adieresis
Encoding: 228 228 29
Width: 570
Flags: W
HStem: -4 60<210.383 379.033> 220 60<276 437> 416 61<399.56 460> 450 60<213.984 424.182> 596 78<163 222 350 409> 620 21G<200.518 232.432 339.237 371.482>
VStem: 62 66<144.754 361.292> 163 76<596 641.558> 333 76<596 641.558> 437 68<112.077 220>
LayerCount: 2
Fore
SplineSet
333 674 m 25xcbc0
 409 674 l 25
 409 596 l 25
 333 596 l 25
 333 674 l 25xcbc0
163 674 m 25
 239 674 l 25
 239 596 l 25
 163 596 l 25
 163 674 l 25
285 740.786132812 m 1
 222 620 l 1
 198.844726562 641.557617188 l 1
 264 764 l 1
 306 764 l 1
 373.155273438 641.557617188 l 1
 350 620 l 1xc7c0
 285 740.786132812 l 1
460 477 m 1xe3c0
 460 416 l 1
 448 416 l 1xe3c0
 407 440 352 450 304 450 c 3
 207 450 128 392 128 255 c 3
 128 108.6484375 211 56 295 56 c 3
 375.006835938 56 435 104 442 168 c 1
 442 220 l 1
 281 220 l 1
 281 280 l 1
 508 280 l 1
 509 260 510 211.301757812 510 183 c 3
 510 74.0087890625 411.076171875 -4 290 -4 c 3
 178 -4 62 80 62 252 c 3
 62 431 179 510 308 510 c 3xd3c0
 365 510 419 498 460 477 c 1xe3c0
EndSplineSet
EndChar
StartChar: ae
Encoding: 230 230 125
Width: 570
Flags: HW
HStem: -4 60<210.383 379.033> 220 60<276 437> 416 61<399.56 460> 450 60<213.984 424.182>
VStem: 62 66<144.754 361.292> 437 68<112.077 220>
LayerCount: 2
Fore
SplineSet
460 477 m 5
 460 416 l 5
 448 416 l 5
 407 440 352 450 304 450 c 4
 207 450 128 392 128 255 c 4
 128 108.6484375 221 56 305 56 c 4
 401.173828125 56 446 111.173828125 446 191 c 6
 446 224 l 5
 348.997070312 224 327.207095993 195.888380516 315 93 c 5
 305 93 l 5
 291 211 268 235 147 248 c 5
 147 258 l 5
 268 271 291 295 305 413 c 5
 315 413 l 5
 329.545533719 290.401930079 357.626953125 278 482 278 c 6
 508 278 l 5
 509 258 510 230.301757812 510 202 c 4
 510 89.0087890625 441.076171875 -4 300 -4 c 4
 188 -4 62 80 62 252 c 4
 62 431 179 510 308 510 c 4
 365 510 419 498 460 477 c 5
EndSplineSet
EndChar
StartChar: ccedilla
Encoding: 231 231 43
Width: 630
Flags: HW
HStem: -4 60<310.446 453.454> 290 60<336.458 445.468> 680 60<64 528> 698 20G<514.102 550.105>
VStem: 491 66<94.1904 245.052>
LayerCount: 2
Fore
SplineSet
570 680 m 5xe8
 570 666 l 5
 108 0 l 5
 36 0 l 5
 36 10 l 5
 528 718 l 5xd8
 570 680 l 5xe8
64 680 m 5xe8
 64 740 l 5
 570 740 l 5
 570 680 l 5
 64 680 l 5xe8
280 312 m 5
 309 335 343 350 387 350 c 7
 482 350 557 282 557 178 c 7
 557 56 485 -4 381 -4 c 7
 300 -4 208 52 208 154 c 7
 208 168 210 184 214 200 c 5
 276 242 l 5
 270 219 267 198 267 180 c 7
 267 92 330 56 384 56 c 7
 449 56 491 94 491 172 c 7
 491 243 449 290 380 290 c 7
 346 290 306 281 282 251 c 5
 280 312 l 5
EndSplineSet
EndChar
StartChar: idieresis
Encoding: 239 239 119
Width: 470
Flags: W
HStem: -4 63<329.546 422> 442 60<35 236>
VStem: 236 66<88.7541 442>
LayerCount: 2
Fore
SplineSet
287 674 m 29xee
 363 674 l 29
 363 596 l 29
 287 596 l 29
 287 674 l 29xee
117 674 m 29
 193 674 l 29
 193 596 l 29
 117 596 l 29
 117 674 l 29
239 740.786132812 m 5
 176 620 l 5
 152.844726562 641.557617188 l 5
 218 764 l 5
 260 764 l 5
 327.155273438 641.557617188 l 5
 304 620 l 5xde
 239 740.786132812 l 5
422 -0.8935546875 m 1
 404.87890625 -3.568359375 399.828125 -4 376 -4 c 3
 302 -4 236 49 236 154 c 2
 236 442 l 1
 35 444 l 1
 35 502 l 1
 302 502 l 1
 302 160 l 2
 302 79 350.376953125 59 393 59 c 3
 408.893554688 59 420.220703125 59.328125 433 62.5322265625 c 1
 433 52.5322265625 l 25
 422 -0.8935546875 l 1
EndSplineSet
EndChar
StartChar: uacute
Encoding: 250 250 63
Width: 590
Flags: W
HStem: -4 60<215.907 377.084> 450 60<212.515 373.717> 586 21G<192 257.5>
VStem: 62 66<146.581 356.678> 462 66<149.322 359.419>
LayerCount: 2
Fore
SplineSet
415 746 m 5
 235 586 l 5
 192 586 l 5
 192 596 l 5
 334 766 l 5
 415 766 l 5
 415 746 l 5
299 -4 m 3
 176 -4 62 69 62 249 c 3
 62 422 169 510 290 510 c 3
 414 510 528 437 528 257 c 3
 528 84 421 -4 299 -4 c 3
288 450 m 3
 199 450 128 376 128 251 c 3
 128 119 209 56 301 56 c 3
 391 56 462 130 462 255 c 3
 462 387 381 450 288 450 c 3
EndSplineSet
EndChar
StartChar: Amacron
Encoding: 256 256 127
Width: 570
Flags: HW
HStem: -4 60<210.383 379.033> 220 60<276 437> 416 61<399.56 460> 450 60<213.984 424.182>
VStem: 62 66<144.754 361.292> 437 68<112.077 220>
LayerCount: 2
Fore
SplineSet
286 573 m 7xa4
 197 573 183 633 183 656 c 5xb4
 217 660 l 5
 217 629 229 603 286 603 c 7
 343 603 355 629 355 660 c 5xca
 389 656 l 5
 389 633 375 573 286 573 c 7xa4
259 656 m 5
 183 656 l 5
 183 734 l 5
 259 734 l 5
 259 656 l 5
389 656 m 5
 313 656 l 5
 313 734 l 5
 389 734 l 5
 389 656 l 5
460 477 m 1xec
 460 416 l 1
 448 416 l 1xec
 407 440 352 450 304 450 c 3
 207 450 128 392 128 255 c 3
 128 108.6484375 211 56 295 56 c 3
 375.006835938 56 435 104 442 168 c 1
 442 220 l 1
 281 220 l 1
 281 280 l 1
 508 280 l 1
 509 260 510 211.301757812 510 183 c 3
 510 74.0087890625 411.076171875 -4 290 -4 c 3
 178 -4 62 80 62 252 c 3
 62 431 179 510 308 510 c 3xdc
 365 510 419 498 460 477 c 1xec
EndSplineSet
EndChar
StartChar: dcaron
Encoding: 271 271 222
Width: 570
Flags: W
HStem: -4 60<163.113 362.834> 450 60<219.6 377.15> 714 20G<96 162> 714 20G<96 162>
VStem: 96 66<63.9219 402.815 458 734> 442 66<143.704 375.45>
LayerCount: 2
Fore
SplineSet
316 573 m 7xa4
 227 573 213 633 213 656 c 5xb4
 247 660 l 5
 247 629 259 603 316 603 c 7
 373 603 385 629 385 660 c 5xca
 419 656 l 5
 419 633 405 573 316 573 c 7xa4
289 656 m 5
 213 656 l 5
 213 734 l 5
 289 734 l 5
 289 656 l 5
419 656 m 5
 343 656 l 5
 343 734 l 5
 419 734 l 5
 419 656 l 5
307 510 m 0xec
 406 510 508 451 508 263 c 0
 508 53 379 -4 271 -4 c 0
 215 -4 155 5 96 18 c 1
 96 734 l 1
 162 734 l 1
 162 458 l 1
 203 496 259 510 307 510 c 0xec
162 68 m 1
 198 60 240 56 278 56 c 0
 366 56 442 110 442 258 c 0
 442 397 380 450 305 450 c 0
 261 450 210 433 162 384 c 1
 162 68 l 1
EndSplineSet
EndChar
StartChar: eogonek
Encoding: 281 281 4
GlifName: eogonek
Width: 560
Flags: W
HStem: -4 60<189.811 356.281> 201 60<133.027 445> 416 61<104 166.291> 450 60<140.173 346.995>
VStem: 67 66<111.551 200.402>
LayerCount: 2
Fore
SplineSet
104 477 m 1xe8
 145 498 204 510 265 510 c 3
 394 510 498 435 498 252 c 3
 498 60 381 -4 270 -4 c 3
 155.923828125 -4 67 60.0087890625 67 194 c 3
 67 221.40234375 72 248 75 261 c 1
 445 261 l 1
 474 201 l 1
 135 201 l 1
 133.415039062 193.661132812 133 184.04296875 133 175 c 3
 133 117 184.26953125 56 272 56 c 3
 346 56 432 97 432 249 c 3
 432 381 360 450 263 450 c 3xd8
 209 450 157 440 116 416 c 1
 104 416 l 1
 104 477 l 1xe8
EndSplineSet
Validated: 5
EndChar
StartChar: Lcaron
Encoding: 317 317 223
Width: 480
Flags: HW
HStem: -8 60<36.1288 235.054> 8 64<35 157.85> 220 60<312 442> 714 20G<288 354> 714 20G<288 354>
VStem: 288 66<112.325 242 280 734> 312 42<220 280>
LayerCount: 2
Fore
SplineSet
246 -47 m 7xf3
 335 -47 349 -107 349 -130 c 5xf340
 315 -134 l 5
 315 -103 303 -77 246 -77 c 7
 189 -77 177 -103 177 -134 c 5xf290
 143 -130 l 5
 143 -107 157 -47 246 -47 c 7xf3
273 -130 m 29
 349 -130 l 29
 349 -208 l 29
 273 -208 l 29
 273 -130 l 29
143 -130 m 29
 219 -130 l 29
 219 -208 l 29
 143 -208 l 29
 143 -130 l 29
312 220 m 25x22
 312 280 l 25
 442 280 l 25
 442 220 l 25
 312 220 l 25x22
354 734 m 25xb4
 354 235 l 3
 354 72.888671875 302.048828125 -8 160 -8 c 3xb4
 113.940429688 -8 80 -3 35 8 c 1
 35 72 l 1
 45 72 l 1x64
 82 60 116.568359375 52 163 52 c 3
 241.088867188 52 288 99.8388671875 288 242 c 0
 288 734 l 25
 354 734 l 25xb4
EndSplineSet
EndChar
StartChar: Ncaron
Encoding: 327 327 229
Width: 570
Flags: HW
HStem: -4 60<203.315 372.248> 452 60<212.013 408.1>
VStem: 62 66<138.864 357.808> 410 66<-178 35 89.4216 442.356>
LayerCount: 2
Fore
SplineSet
292 573 m 7xa4
 203 573 189 633 189 656 c 5xb4
 223 660 l 5
 223 629 235 603 292 603 c 7
 349 603 361 629 361 660 c 5xca
 395 656 l 5
 395 633 381 573 292 573 c 7xa4
265 656 m 5
 189 656 l 5
 189 734 l 5
 265 734 l 5
 265 656 l 5
395 656 m 5
 319 656 l 5
 319 734 l 5
 395 734 l 5
 395 656 l 5
269 -4 m 0
 172 -4 62 63 62 241 c 0
 62 448 195 512 300 512 c 0
 360 512 424 500 476 485 c 1
 476 -178 l 1
 410 -178 l 1
 410 35 l 1
 371 5 330 -4 269 -4 c 0
410 436 m 1
 377 448 331 452 293 452 c 0
 209 452 128 392 128 246 c 0
 128 111 207 56 276 56 c 0
 335 56 368 67 410 108 c 1
 410 436 l 1
EndSplineSet
EndChar
StartChar: Omacron
Encoding: 332 332 135
Width: 520
Flags: HW
HStem: -4 60<217.087 407.518> 29 61<385.981 443> 418 67<371.75 441> 450 60<213.585 408.908>
VStem: 62 66<149.777 356.678>
LayerCount: 2
Fore
SplineSet
271 573 m 7xa4
 182 573 168 633 168 656 c 5xb4
 202 660 l 5
 202 629 214 603 271 603 c 7
 328 603 340 629 340 660 c 5xca
 374 656 l 5
 374 633 360 573 271 573 c 7xa4
244 656 m 5
 168 656 l 5
 168 734 l 5
 244 734 l 5
 244 656 l 5
374 656 m 5
 298 656 l 5
 298 734 l 5
 374 734 l 5
 374 656 l 5
443 29 m 1x48
 402 8 356 -4 301 -4 c 3
 177 -4 62 69 62 249 c 3
 62 422 173 510 295 510 c 3x98
 351 510 395 501 441 485 c 1
 441 418 l 1
 432 418 l 1x28
 386 438 350 450 293 450 c 3
 203 450 128 376 128 251 c 3
 128 119 210 56 303 56 c 3x98
 349 56 390 66 431 90 c 1
 443 90 l 1
 443 29 l 1x48
EndSplineSet
EndChar
StartChar: Rcaron
Encoding: 344 344 231
Width: 670
Flags: HW
HStem: -4 60<243.71 440.076> 454 60<375.65 483.024>
VStem: 67 66<167.395 423.527> 309 66<-177 453.012> 542 66<162.931 385.704>
LayerCount: 2
Fore
SplineSet
340 573 m 3xa4
 251 573 237 633 237 656 c 1xb4
 271 660 l 1
 271 629 283 603 340 603 c 3
 397 603 409 629 409 660 c 1xca
 443 656 l 1
 443 633 429 573 340 573 c 3xa4
313 656 m 1
 237 656 l 1
 237 734 l 1
 313 734 l 1
 313 656 l 1
443 656 m 1
 367 656 l 1
 367 734 l 1
 443 734 l 1
 443 656 l 1
409 514 m 3
 519 514 608 442 608 280 c 3
 608 73 469 -4 338 -4 c 3
 203 -4 67 81 67 268 c 3
 67 368 88 444 122 506 c 1
 187 506 l 1
 187 492 l 1
 154 440 133 366 133 270 c 3
 133 120 238 56 341 56 c 3
 447 56 542 118 542 273 c 3
 542 409 479 454 418 454 c 3
 402 454 387 453 375 447 c 9
 375 -177 l 1
 309 -177 l 1
 309 497 l 17
 336 508 374 514 409 514 c 3
EndSplineSet
EndChar
StartChar: Scaron
Encoding: 352 352 113
Width: 500
Flags: W
HStem: -208 78<217 259 313 355> -77 30<232.234 339.766> -4 60<214.238 417.217> 29 61<391.914 453> 448 60<203.187 332.502> 714 20G<333 399> 714 20G<333 399>
VStem: 62 66<147.656 367.816> 183 76<-208 -130> 183 34<-134 -91.8913> 313 76<-208 -130> 333 66<474 734> 355 34<-134 -91.8913>
LayerCount: 2
Fore
SplineSet
286 -47 m 7xc980
 375 -47 389 -107 389 -130 c 5xc9a0
 355 -134 l 5
 355 -103 343 -77 286 -77 c 7
 229 -77 217 -103 217 -134 c 5xc948
 183 -130 l 5
 183 -107 197 -47 286 -47 c 7xc980
313 -130 m 29
 389 -130 l 29
 389 -208 l 29
 313 -208 l 29
 313 -130 l 29
183 -130 m 29
 259 -130 l 29
 259 -208 l 29
 183 -208 l 29
 183 -130 l 29
333 734 m 25xcd10
 399 734 l 1
 399 495 l 25
 333 474 l 1
 333 734 l 25xcd10
453 29 m 1xd910
 412 8 356 -4 301 -4 c 3
 172 -4 62 73 62 253 c 3
 62 431 165 508 282 508 c 3
 338 508 381 499 399 495 c 1
 399 444 l 1
 348 444 l 1
 334 446 304 448 281 448 c 3
 195 448 128 390 128 255 c 3
 128 113 210 56 303 56 c 3xe910
 349 56 400 66 441 90 c 1
 453 90 l 1
 453 29 l 1xd910
EndSplineSet
EndChar
StartChar: tcaron
Encoding: 357 357 226
Width: 466
Flags: W
HStem: 0 21G<169 235> 662 21G<8 451> 679 43G<8 451>
VStem: 169 66<0 376.808>
LayerCount: 2
Fore
SplineSet
216 -47 m 7xc980
 305 -47 319 -107 319 -130 c 5xc9a0
 285 -134 l 5
 285 -103 273 -77 216 -77 c 7
 159 -77 147 -103 147 -134 c 5xc948
 113 -130 l 5
 113 -107 127 -47 216 -47 c 7xc980
243 -130 m 29
 319 -130 l 29
 319 -208 l 29
 243 -208 l 29
 243 -130 l 29
113 -130 m 29
 189 -130 l 29
 189 -208 l 29
 113 -208 l 29
 113 -130 l 29
451 699 m 1x90
 451 629 l 1
 274 519 235 386 235 154 c 2
 235 0 l 1
 169 0 l 1
 169 164 l 2
 169 406 206 562 451 699 c 1x90
8 662 m 1xd0
 8 722 l 1
 451 722 l 1xb0
 451 662 l 1
 8 662 l 1xd0
EndSplineSet
EndChar
StartChar: uogonek
Encoding: 371 371 35
Width: 680
Flags: W
HStem: 26 30<306 372> 486 20G<105 187 306 372 493 575>
VStem: 67 66<163.853 423.527> 306 66<26 506> 547 66<161.62 423.331>
LayerCount: 2
Fore
SplineSet
306 26 m 1
 306 506 l 1
 372 506 l 1
 372 26 l 1
 306 26 l 1
340 -4 m 3
 201 -4 67 81 67 268 c 3
 67 368 88 444 122 506 c 1
 187 506 l 1
 187 492 l 1
 154 440 133 366 133 270 c 3
 133 115 235 56 343 56 c 3
 450 56 547 115 547 269 c 3
 547 365 526 440 493 492 c 1
 493 506 l 1
 558 506 l 1
 592 444 613 377 613 277 c 3
 613 77 491 -4 340 -4 c 3
EndSplineSet
EndChar
StartChar: zcaron
Encoding: 382 382 228
Width: 590
Flags: W
HStem: -4 60<146.997 338.62> 155 60<143.442 333.078> 450 60<180.106 354.897> 714 20G<113 179> 714 20G<113 179>
VStem: 67 66<72.9865 141.578> 113 66<471 734> 441 66<152.422 362.157> 449 66<-178 -81.5476> 457 66<-177.262 35.1056>
LayerCount: 2
Fore
SplineSet
246 -47 m 7xc980
 335 -47 349 -107 349 -130 c 5xc9a0
 315 -134 l 5
 315 -103 303 -77 246 -77 c 7
 189 -77 177 -103 177 -134 c 5xc948
 143 -130 l 5
 143 -107 157 -47 246 -47 c 7xc980
273 -130 m 29
 349 -130 l 29
 349 -208 l 29
 273 -208 l 29
 273 -130 l 29
143 -130 m 29
 219 -130 l 29
 219 -208 l 29
 143 -208 l 29
 143 -130 l 29
449 -168 m 1xe080
 454 -147 457 -113 457 -80 c 0
 457 78 366 155 218 155 c 3
 178 155 133 142 133 110 c 3xe440
 133 65 187 56 247 56 c 3
 341 56 441 122 441 254 c 3
 441 386 369 450 262 450 c 3
 224 450 196 445 166 428 c 9
 113 428 l 1
 113 469 l 1
 148 487 207 510 264 510 c 3
 403 510 507 441 507 258 c 3xe3
 507 76 375 -4 242 -4 c 3
 151 -4 67 25 67 115 c 3
 67 183 145 215 218 215 c 3
 410 215 523 102 523 -80 c 0xe440
 523 -111 520 -150 515 -178 c 1
 449 -178 l 25
 449 -168 l 1xe080
113 734 m 25xf2
 179 734 l 25
 179 471 l 25
 113 466 l 25
 113 734 l 25xf2
EndSplineSet
EndChar
StartChar: uni0205
Encoding: 517 517 236
Width: 580
Flags: W
HStem: -4 62<366.496 498.892> 220 60<159.875 504> 446 60<150.148 257.859>
VStem: 62 66<309.151 424.164> 279 66<80.5109 424.28>
LayerCount: 2
Fore
SplineSet
212 746 m 5xce
 212 766 l 5
 293 766 l 5
 435 596 l 5
 435 586 l 5
 392 586 l 5
 212 746 l 5xce
62 746 m 5xce
 62 766 l 5
 143 766 l 5
 285 596 l 5
 285 586 l 5
 242 586 l 5
 62 746 l 5xce
128 366 m 0
 128 309 175 280 231 280 c 2
 504 280 l 1
 504 220 l 1
 223 220 l 2
 133 220 62 273 62 363 c 0
 62 446 121 506 204 506 c 0
 301 506 345 448 345 354 c 2
 345 164 l 2
 345 73 380 58 433 58 c 0
 466 58 490 62 509 69 c 1
 509 59 l 1
 498 3 l 1
 479 -2 457 -4 432 -4 c 0
 342 -4 279 29 279 154 c 2
 279 349 l 2
 279 408 259 446 207 446 c 0
 161 446 128 416 128 366 c 0
EndSplineSet
EndChar
StartChar: uni0209
Encoding: 521 521 238
Width: 470
Flags: W
HStem: -4 63<329.546 422> 442 60<35 236>
VStem: 236 66<88.7541 442>
LayerCount: 2
Fore
SplineSet
172 746 m 5xce
 172 766 l 5
 253 766 l 5
 395 596 l 5
 395 586 l 5
 352 586 l 5
 172 746 l 5xce
22 746 m 5xce
 22 766 l 5
 103 766 l 5
 245 596 l 5
 245 586 l 5
 202 586 l 5
 22 746 l 5xce
422 -0.8935546875 m 1
 404.87890625 -3.568359375 399.828125 -4 376 -4 c 3
 302 -4 236 49 236 154 c 2
 236 442 l 1
 35 444 l 1
 35 502 l 1
 302 502 l 1
 302 160 l 2
 302 79 350.376953125 59 393 59 c 3
 408.893554688 59 420.220703125 59.328125 433 62.5322265625 c 1
 433 52.5322265625 l 25
 422 -0.8935546875 l 1
EndSplineSet
EndChar
StartChar: uni0214
Encoding: 532 532 241
Width: 590
Flags: HW
HStem: -4 60<215.907 377.084> 450 60<212.515 373.717>
VStem: 62 66<146.581 356.678> 462 66<149.322 359.419>
LayerCount: 2
Fore
SplineSet
225 746 m 5xce
 225 766 l 5
 306 766 l 5
 448 596 l 5
 448 586 l 5
 405 586 l 5
 225 746 l 5xce
75 746 m 5xce
 75 766 l 5
 156 766 l 5
 298 596 l 5
 298 586 l 5
 255 586 l 5
 75 746 l 5xce
299 -4 m 3
 176 -4 62 69 62 249 c 3
 62 422 169 510 290 510 c 3
 414 510 528 437 528 257 c 3
 528 84 421 -4 299 -4 c 3
288 450 m 3
 199 450 128 376 128 251 c 3
 128 119 209 56 301 56 c 3
 391 56 462 130 462 255 c 3
 462 387 381 450 288 450 c 3
EndSplineSet
EndChar
StartChar: uni0308
Encoding: 776 776 58
Width: 0
Flags: W
HStem: 588 78<-402 -343 -215 -156> 612 21G<-364.482 -332.568 -225.763 -193.518>
VStem: -402 76<588 633.558> -232 76<588 633.558>
LayerCount: 2
Fore
SplineSet
-232 666 m 25xb0
 -156 666 l 25
 -156 588 l 25
 -232 588 l 25
 -232 666 l 25xb0
-402 666 m 25
 -326 666 l 25
 -326 588 l 25
 -402 588 l 25
 -402 666 l 25
-280 732.786132812 m 1
 -343 612 l 1
 -366.155273438 633.557617188 l 1
 -301 756 l 1
 -259 756 l 1
 -191.844726562 633.557617188 l 1
 -215 612 l 1x70
 -280 732.786132812 l 1
EndSplineSet
EndChar
StartChar: uni1EBF
Encoding: 7871 7871 60
Width: 580
Flags: W
HStem: -4 62<366.496 498.892> 220 60<159.875 504> 446 60<150.148 257.859> 586 21G<222 287.5>
VStem: 62 66<309.151 424.164> 279 66<80.5109 424.28>
LayerCount: 2
Fore
SplineSet
445 746 m 5
 265 586 l 5
 222 586 l 5
 222 596 l 5
 364 766 l 5
 445 766 l 5
 445 746 l 5
128 366 m 0
 128 309 175 280 231 280 c 2
 504 280 l 1
 504 220 l 1
 223 220 l 2
 133 220 62 273 62 363 c 0
 62 446 121 506 204 506 c 0
 301 506 345 448 345 354 c 2
 345 164 l 2
 345 73 380 58 433 58 c 0
 466 58 490 62 509 69 c 1
 509 59 l 1
 498 3 l 1
 479 -2 457 -4 432 -4 c 0
 342 -4 279 29 279 154 c 2
 279 349 l 2
 279 408 259 446 207 446 c 0
 161 446 128 416 128 366 c 0
EndSplineSet
EndChar
StartChar: quotedblbase
Encoding: 8222 8222 48
Width: 400
Flags: W
HStem: 412 50<106.672 198 242 380> 605 50<105.089 210.254>
VStem: 32 56<480.216 588.182> 226 54<463.037 589.864>
LayerCount: 2
Fore
SplineSet
156 605 m 3
 115 605 88 577 88 535 c 0
 88 489 120 462 160 462 c 2
 380 462 l 1
 380 412 l 1
 161 412 l 2
 80 412 32 464 32 535 c 0
 32 596 72 655 153 655 c 3
 232 655 280 604 280 538 c 0
 280 481 250 443 232 425 c 2
 229 422 l 1
 178 449 l 1
 196 457 226 495 226 538 c 0
 226 574 205 605 156 605 c 3
EndSplineSet
EndChar
StartChar: dagger
Encoding: 8224 8224 41
Width: 300
Flags: W
HStem: 600 50<33 267>
VStem: 123 54<280 764>
LayerCount: 2
Fore
SplineSet
123 764 m 1
 177 764 l 1
 177 280 l 1
 123 280 l 1
 123 764 l 1
33 600 m 5
 33 650 l 5
 267 650 l 5
 267 600 l 5
 33 600 l 5
EndSplineSet
EndChar
StartChar: uni2C76
Encoding: 11382 11382 10
GlifName: uni2C_76
Width: 850
Flags: W
HStem: -4 60<215.907 377.084 718.781 802> 442 60<355 626> 450 60<212.515 330.322>
VStem: 62 66<146.581 356.678> 462 66<149.322 359.419> 626 66<82.0808 442>
LayerCount: 2
Fore
SplineSet
802 -0.8935546875 m 1xdc
 784.87890625 -3.568359375 779.828125 -4 756 -4 c 3
 682 -4 626 49 626 154 c 2
 626 442 l 1
 355 444 l 1
 325 502 l 1
 692 502 l 1
 692 160 l 2
 692 79 730.376953125 59 773 59 c 3
 788.893554688 59 800.220703125 59.328125 813 62.5322265625 c 1
 813 52.5322265625 l 25
 802 -0.8935546875 l 1xdc
299 -4 m 3
 176 -4 62 69 62 249 c 3
 62 422 169 510 290 510 c 3xbc
 414 510 528 437 528 257 c 3
 528 84 421 -4 299 -4 c 3
288 450 m 3
 199 450 128 376 128 251 c 3
 128 119 209 56 301 56 c 3
 391 56 462 130 462 255 c 3
 462 387 381 450 288 450 c 3
EndSplineSet
Validated: 5
EndChar
StartChar: Ecircumflex_uni0308
Encoding: 65584 -1 181
Width: 580
Flags: HW
HStem: -4 62<366.496 498.892> 220 60<159.875 504> 446 60<150.148 257.859>
VStem: 62 66<309.151 424.164> 279 66<80.5109 424.28>
LayerCount: 2
Fore
SplineSet
297 674 m 29xee
 373 674 l 29
 373 596 l 29
 297 596 l 29
 297 674 l 29xee
127 674 m 29
 203 674 l 29
 203 596 l 29
 127 596 l 29
 127 674 l 29
249 740.786132812 m 5
 186 620 l 5
 162.844726562 641.557617188 l 5
 228 764 l 5
 270 764 l 5
 337.155273438 641.557617188 l 5
 314 620 l 5xde
 249 740.786132812 l 5
128 366 m 0
 128 309 175 280 231 280 c 2
 504 280 l 1
 504 220 l 1
 223 220 l 2
 133 220 62 273 62 363 c 0
 62 446 121 506 204 506 c 0
 301 506 345 448 345 354 c 2
 345 164 l 2
 345 73 380 58 433 58 c 0
 466 58 490 62 509 69 c 1
 509 59 l 1
 498 3 l 1
 479 -2 457 -4 432 -4 c 0
 342 -4 279 29 279 154 c 2
 279 349 l 2
 279 408 259 446 207 446 c 0
 161 446 128 416 128 366 c 0
EndSplineSet
LCarets2: 1 0
Ligature2: "ProbingFulikaSans-Light-liga-1" Ecircumflex uni0308
EndChar
StartChar: K_quoteright
Encoding: 65598 -1 195
Width: 620
Flags: W
HStem: 600 50<33 267>
VStem: 123 54<280 764>
LayerCount: 2
Fore
SplineSet
243 764 m 1
 297 764 l 1
 297 510 l 1
 243 510 l 1
 243 764 l 1
153 620 m 1
 153 670 l 1
 597 670 l 5
 597 620 l 5
 153 620 l 1
513 440 m 1x30
 181 30 l 1
 110 30 l 1
 110 43 l 1
 460 476 l 1
 513 453 l 1
 513 440 l 1x30
522 -4 m 1
 456 -4 l 1
 456 734 l 1
 522 734 l 1xb0
 522 -4 l 1
110 30 m 1
 96 30 l 1
 96 476 l 1
 162 476 l 17
 162 64 l 1
 110 30 l 1
EndSplineSet
LCarets2: 1 0
Ligature2: "ProbingFulikaSans-Light-liga-1" K quoteright
EndChar
StartChar: Ocircumflex_acutecomb
Encoding: 65601 -1 198
Width: 520
Flags: HW
HStem: -4 60<217.087 407.518> 29 61<385.981 443> 418 67<371.75 441> 450 60<213.585 408.908>
VStem: 62 66<149.777 356.678>
LayerCount: 2
Fore
SplineSet
395 855 m 1
 215 695 l 1
 172 695 l 1
 172 705 l 1
 314 875 l 1
 395 875 l 1
 395 855 l 1
443 29 m 1x48
 402 8 356 -4 301 -4 c 3
 177 -4 62 69 62 249 c 3
 62 422 173 510 295 510 c 3x98
 351 510 395 501 441 485 c 1
 441 418 l 1
 432 418 l 1x28
 386 438 350 450 293 450 c 3
 203 450 128 376 128 251 c 3
 128 119 210 56 303 56 c 3x98
 349 56 390 66 431 90 c 1
 443 90 l 1
 443 29 l 1x48
159 591 m 1
 93 591 l 1
 93 601 l 1
 93 661.498046875 123.987304688 726 197 726 c 0
 284.002929688 726 276.875 656 332 656 c 0
 372.127929688 656 379 703.139648438 379 734 c 1
 445 734 l 1
 445 724 l 1
 445 653.952148438 412.749023438 596 336 596 c 0
 254.211914062 596 256.313476562 666 200 666 c 0
 169.159179688 666 159 618.70703125 159 591 c 1
EndSplineSet
LCarets2: 1 0
Ligature2: "ProbingFulikaSans-Light-liga-1" Ocircumflex acutecomb
EndChar
StartChar: Otilde_acutecomb
Encoding: 65604 -1 201
Width: 520
Flags: HW
HStem: -4 60<217.087 407.518> 29 61<385.981 443> 418 67<371.75 441> 450 60<213.585 408.908>
VStem: 62 66<149.777 356.678>
LayerCount: 2
Fore
SplineSet
379 855 m 1
 262 751 l 1
 197.764648438 755 l 1
 298 875 l 1
 379 875 l 1
 379 855 l 1
277 541 m 3xcfc0
 196 541 148 593 148 664 c 0
 148 725 191 784 269 784 c 3
 350 784 398 732 398 661 c 0
 398 600 355 541 277 541 c 3xcfc0
272 734 m 3
 231 734 204 706 204 664 c 0
 204 618 236 591 276 591 c 3
 317 591 344 619 344 661 c 0
 344 707 312 734 272 734 c 3
443 29 m 1x48
 402 8 356 -4 301 -4 c 3
 177 -4 62 69 62 249 c 3
 62 422 173 510 295 510 c 3x98
 351 510 395 501 441 485 c 1
 441 418 l 1
 432 418 l 1x28
 386 438 350 450 293 450 c 3
 203 450 128 376 128 251 c 3
 128 119 210 56 303 56 c 3x98
 349 56 390 66 431 90 c 1
 443 90 l 1
 443 29 l 1x48
EndSplineSet
LCarets2: 1 0
Ligature2: "ProbingFulikaSans-Light-liga-1" Otilde acutecomb
EndChar
StartChar: Thorn_uni030C
Encoding: 65608 -1 205
Width: 500
Flags: HW
HStem: -2 60<167.498 296.813> 416 61<47 108.086> 450 60<82.7827 285.762>
VStem: 372 66<138.184 358.344>
LayerCount: 2
Fore
SplineSet
226 573 m 7xa4
 137 573 123 633 123 656 c 5xb4
 157 660 l 5
 157 629 169 603 226 603 c 7
 283 603 295 629 295 660 c 5xca
 329 656 l 5
 329 633 315 573 226 573 c 7xa4
199 656 m 5
 123 656 l 5
 123 734 l 5
 199 734 l 5
 199 656 l 5
329 656 m 5
 253 656 l 5
 253 734 l 5
 329 734 l 5
 329 656 l 5
167 -178 m 25x90
 101 -178 l 1
 101 11 l 25
 167 32 l 1
 167 -178 l 25x90
47 477 m 1xd0
 88 498 144 510 199 510 c 3
 328 510 438 433 438 253 c 3
 438 75 335 -2 218 -2 c 3
 162 -2 119 7 101 11 c 1
 101 62 l 1
 152 62 l 1
 166 60 196 58 219 58 c 3
 305 58 372 116 372 251 c 3
 372 393 290 450 197 450 c 3xb0
 151 450 100 440 59 416 c 1
 47 416 l 1
 47 477 l 1xd0
EndSplineSet
LCarets2: 1 0
Ligature2: "ProbingFulikaSans-Light-liga-1" Thorn uni030C
EndChar
StartChar: X_uni030C
Encoding: 65613 -1 210
Width: 850
Flags: HW
HStem: -4 60<207.439 338.32 672.937 742> 443 59<749.081 826> 450 60<215.161 352.89 674.04 824.688>
VStem: 68 66<137.896 356.441>
LayerCount: 2
Fore
SplineSet
466 573 m 7xa4
 377 573 363 633 363 656 c 5xb4
 397 660 l 5
 397 629 409 603 466 603 c 7
 523 603 535 629 535 660 c 5xca
 569 656 l 5
 569 633 555 573 466 573 c 7xa4
439 656 m 5
 363 656 l 5
 363 734 l 5
 439 734 l 5
 439 656 l 5
569 656 m 5
 493 656 l 5
 493 734 l 5
 569 734 l 5
 569 656 l 5
570.0390625 105 m 2xb0
 508.184570312 212 l 2
 402.916992188 394.099609375 365.49609375 450 282 450 c 3
 201.231445312 450 134 368.333984375 134 245 c 3
 134 116.954101562 205.100585938 56 278 56 c 3
 353.727539062 56 396.770507812 138.607421875 471 269 c 0
 575.747070312 453 629.9375 510 748 510 c 3xb0
 771 510 798 508 826 502 c 1
 826 443 l 1
 816 443 l 1xd0
 794 448 770 450 748 450 c 3
 680.995117188 450 629.224609375 421 532 242 c 0
 435.846679688 64.97265625 391.66796875 -4 275 -4 c 3
 160.66015625 -4 68 80.1845703125 68 238 c 3
 68 404.86328125 163.51171875 510 286 510 c 3
 396.829101562 510 458.740234375 441.93359375 542.063476562 290 c 2
 625.971679688 137 l 2
 664.370117188 66.984375 698.495117188 59 731 59 c 3
 736.893554688 59 748.220703125 59.328125 761 62.5322265625 c 1
 761 52.5322265625 l 25
 742 -0.8935546875 l 1
 724.87890625 -3.568359375 715.828125 -4 706 -4 c 3
 649 -4 610.530273438 34.9560546875 570.0390625 105 c 2xb0
EndSplineSet
LCarets2: 1 0
Ligature2: "ProbingFulikaSans-Light-liga-1" X uni030C
EndChar
StartChar: ae_acutecomb
Encoding: 65544 -1 141
Width: 570
Flags: HW
HStem: -4 60<210.383 379.033> 220 60<276 437> 416 61<399.56 460> 450 60<213.984 424.182>
VStem: 62 66<144.754 361.292> 437 68<112.077 220>
LayerCount: 2
Fore
SplineSet
460 477 m 1
 460 416 l 1
 448 416 l 1
 407 440 352 450 304 450 c 0
 207 450 128 392 128 255 c 0
 128 108.6484375 221 56 305 56 c 0
 401.173828125 56 446 111.173828125 446 191 c 2
 446 234 l 1
 348.997070312 234 327.207095993 195.888380516 315 93 c 1
 305 93 l 1
 291 211 268 235 147 248 c 1
 147 258 l 1
 268 271 291 295 305 413 c 1
 315 413 l 1
 329.545533719 290.401930079 357.626953125 268 482 268 c 2
 508 268 l 1
 509 248 510 230.301757812 510 202 c 0
 510 89.0087890625 441.076171875 -4 300 -4 c 0
 188 -4 62 80 62 252 c 0
 62 431 179 510 308 510 c 0
 365 510 419 498 460 477 c 1
445 746 m 1
 265 586 l 1
 222 586 l 1
 222 596 l 1
 364 766 l 1
 445 766 l 1
 445 746 l 1
EndSplineSet
LCarets2: 1 0
Ligature2: "ProbingFulikaSans-Light-liga-1" ae acutecomb
EndChar
StartChar: b_uni030C
Encoding: 65548 -1 145
Width: 560
Flags: HW
HStem: 419 67<406.75 476> 451 55<222.083 443.908>
VStem: 67 66<159.955 351.529> 285 66<-178 6.25551>
LayerCount: 2
Fore
SplineSet
276 573 m 7xa4
 187 573 173 633 173 656 c 5xb4
 207 660 l 5
 207 629 219 603 276 603 c 7
 333 603 345 629 345 660 c 5xca
 379 656 l 5
 379 633 365 573 276 573 c 7xa4
249 656 m 5
 173 656 l 5
 173 734 l 5
 249 734 l 5
 249 656 l 5
379 656 m 5
 303 656 l 5
 303 734 l 5
 379 734 l 5
 379 656 l 5
164 506 m 1x70
 486 80 l 1
 486 -4 l 1
 476 -4 l 1
 95 496 l 1
 95 506 l 1
 164 506 l 1x70
351 -178 m 1
 285 -178 l 1
 285 1.7255859375 l 1
 172 22.67578125 67 94.212890625 67 253 c 0
 67 436 208 511 330 511 c 0
 386 511 430 502 476 486 c 1
 476 419 l 1
 467 419 l 1xb0
 421 439 385 451 328 451 c 0
 238 451 133 390 133 255 c 0
 133 119.412109375 228 64.4609375 351 56.001953125 c 1
 351 -178 l 1
EndSplineSet
LCarets2: 1 0
Ligature2: "ProbingFulikaSans-Light-liga-1" b uni030C
EndChar
StartChar: ecircumflex_uni0308_acutecomb
Encoding: 65550 -1 147
Width: 580
Flags: W
HStem: -4 62<366.496 498.892> 220 60<159.875 504> 446 60<150.148 257.859>
VStem: 62 66<309.151 424.164> 279 66<80.5109 424.28>
LayerCount: 2
Back
SplineSet
432 -0.8935546875 m 5
 414.87890625 -3.568359375 409.828125 -4 386 -4 c 7
 312 -4 246 49 246 154 c 6
 246 442 l 5
 45 444 l 5
 45 502 l 5
 312 502 l 5
 312 160 l 6
 312 79 360.376953125 59 403 59 c 7
 418.893554688 59 430.220703125 59.328125 443 62.5322265625 c 5
 443 52.5322265625 l 29
 432 -0.8935546875 l 5
EndSplineSet
Fore
SplineSet
455 795 m 1
 275 635 l 1
 232 635 l 1
 232 645 l 1
 374 815 l 1
 455 815 l 1
 455 795 l 1
297 674 m 25xee
 373 674 l 25
 373 596 l 25
 297 596 l 25
 297 674 l 25xee
127 674 m 25
 203 674 l 25
 203 596 l 25
 127 596 l 25
 127 674 l 25
249 740.786132812 m 1
 186 620 l 1
 162.844726562 641.557617188 l 1
 228 764 l 1
 270 764 l 1
 337.155273438 641.557617188 l 1
 314 620 l 1xde
 249 740.786132812 l 1
128 366 m 0
 128 309 175 280 231 280 c 2
 504 280 l 1
 504 220 l 1
 223 220 l 2
 133 220 62 273 62 363 c 0
 62 446 121 506 204 506 c 0
 301 506 345 448 345 354 c 2
 345 164 l 2
 345 73 380 58 433 58 c 0
 466 58 490 62 509 69 c 1
 509 59 l 1
 498 3 l 1
 479 -2 457 -4 432 -4 c 0
 342 -4 279 29 279 154 c 2
 279 349 l 2
 279 408 259 446 207 446 c 0
 161 446 128 416 128 366 c 0
EndSplineSet
LCarets2: 1 0
Ligature2: "ProbingFulikaSans-Light-liga-1" ecircumflex uni0308 acutecomb
EndChar
StartChar: f_uni030C
Encoding: 65555 -1 152
Width: 520
Flags: W
HStem: -182 60<76.1161 255.494> -163 62<75 201.848> 34 64<65 127.651> 641 64<350.023 406> 680 60<170.03 363.543>
VStem: 65 66<509.621 640.971> 263 64<-113.265 -29.905> 372 66<98.0838 232.895>
LayerCount: 2
Fore
SplineSet
360 -155 m 0xa4
 360 -86 401 -53 444 -53 c 1xb4
 448 -83 l 1
 407 -83 394 -111 394 -163 c 0
 360 -155 l 0xa4
444 -53 m 1
 520 -53 l 1
 520 -131 l 1
 444 -131 l 1
 444 -53 l 1
360 -155 m 1
 436 -155 l 1
 436 -233 l 1
 360 -233 l 1
 360 -155 l 1
327 -77 m 0xa7
 327 -140 279 -182 204 -182 c 0xa7
 158 -182 118 -176 75 -163 c 1
 75 -101 l 1
 89 -101 l 1x67
 130 -117 168 -122 204 -122 c 0
 244 -122 263 -103 263 -74 c 0
 263 -30 230 -16 129 11 c 1
 130 60 l 1
 243 28 327 1 327 -77 c 0xa7
65 569 m 3
 65 684 144 740 257 740 c 3x2f
 312 740 363 726 406 705 c 1
 406 641 l 1
 396 641 l 1x37
 352 668 298 680 250 680 c 3x2f
 188 680 131 653 131 572 c 3
 131 424 438 364 438 174 c 3
 438 78 388 -4 237 -4 c 3
 180 -4 113 12 65 34 c 1
 65 98 l 1
 75 98 l 1
 132 70 199 56 247 56 c 3
 321 56 372 94 372 170 c 3
 372 318 65 379 65 569 c 3
EndSplineSet
LCarets2: 1 0
Ligature2: "ProbingFulikaSans-Light-liga-1" f uni030C
EndChar
StartChar: h_uni030C
Encoding: 65557 -1 154
Width: 520
Flags: W
HStem: -4 60<209.467 435.464> 442 60<142 442> 714 20G<90 156> 714 20G<90 156>
VStem: 90 66<115.422 442 502 734> 142 14<442 502>
LayerCount: 2
Fore
SplineSet
266 -47 m 7xf3
 355 -47 369 -107 369 -130 c 5xf340
 335 -134 l 5
 335 -103 323 -77 266 -77 c 7
 209 -77 197 -103 197 -134 c 5xf290
 163 -130 l 5
 163 -107 177 -47 266 -47 c 7xf3
293 -130 m 29
 369 -130 l 29
 369 -208 l 29
 293 -208 l 29
 293 -130 l 29
163 -130 m 29
 239 -130 l 29
 239 -208 l 29
 163 -208 l 29
 163 -130 l 29
142 442 m 25xc4
 142 502 l 25
 442 502 l 25
 442 442 l 25
 142 442 l 25xc4
156 206 m 3xe8
 156 98 210.200195312 56 299 56 c 3
 355.15625 56 403.921875 59 455 69 c 1
 455 59 l 1
 435 4 l 1
 383.8828125 -4 352.8828125 -4 292 -4 c 3
 192.571289062 -4 90 30 90 206 c 0
 90 734 l 1
 156 734 l 1
 156 520 156 287 156 206 c 3xe8
EndSplineSet
LCarets2: 1 0
Ligature2: "ProbingFulikaSans-Light-liga-1" h uni030C
EndChar
StartChar: i_i
Encoding: 65539 -1 67
Width: 670
Flags: W
HStem: -4 63<334.86 622.739> 444 58<35 236 302 436>
VStem: 236 66<91.2141 444> 436 66<50 444>
LayerCount: 2
Fore
SplineSet
622 4.1064453125 m 1
 598.87890625 -0.568359375 499.828125 -4 426 -4 c 0
 292 -4 236 59 236 164 c 2
 236 444 l 1
 235 444 l 1
 35 444 l 1
 35 502 l 1
 235 502 l 1
 302 502 l 1
 502 502 l 1
 502 50 l 2
 436 44 l 2
 436 444 l 1
 302 444 l 1
 302 170 l 2
 302 89 330.376953125 59 443 59 c 0
 508.893554688 59 610.220703125 63.328125 633 67.5322265625 c 1
 633 57.5322265625 l 1
 622 4.1064453125 l 1
EndSplineSet
LCarets2: 1 370
Ligature2: "ProbingFulikaSans-Light-liga-1" i i
EndChar
StartChar: iogonek_acutecomb
Encoding: 65559 -1 156
Width: 620
Flags: W
HStem: -4 63<249.546 342 449.546 542> 220 60<65 546> 442 60<68 156 268 356>
VStem: 156 66<88.7541 442> 356 66<88.7541 442>
LayerCount: 2
Fore
SplineSet
425 746 m 5
 245 586 l 5
 202 586 l 5
 202 596 l 5
 344 766 l 5
 425 766 l 5
 425 746 l 5
65 220 m 25
 65 280 l 25
 546 280 l 25
 546 220 l 25
 65 220 l 25
542 -0.8935546875 m 1
 524.87890625 -3.568359375 519.828125 -4 496 -4 c 3
 422 -4 356 49 356 154 c 2
 356 442 l 1
 268 444 l 1
 268 502 l 1
 422 502 l 1
 422 160 l 2
 422 79 470.376953125 59 513 59 c 3
 528.893554688 59 540.220703125 59.328125 553 62.5322265625 c 1
 553 52.5322265625 l 25
 542 -0.8935546875 l 1
342 -0.8935546875 m 1
 324.87890625 -3.568359375 319.828125 -4 296 -4 c 3
 222 -4 156 49 156 154 c 2
 156 442 l 1
 68 444 l 1
 68 502 l 1
 222 502 l 1
 222 160 l 2
 222 79 270.376953125 59 313 59 c 3
 328.893554688 59 340.220703125 59.328125 353 62.5322265625 c 1
 353 52.5322265625 l 25
 342 -0.8935546875 l 1
EndSplineSet
LCarets2: 1 0
Ligature2: "ProbingFulikaSans-Light-liga-1" iogonek acutecomb
EndChar
StartChar: k_uni030C
Encoding: 65563 -1 160
Width: 620
Flags: W
HStem: 714 20G<456 522> 714 20G<456 522>
VStem: 96 66<64 476> 456 66<-4 440 453 734>
LayerCount: 2
Fore
SplineSet
256 573 m 7xa4
 167 573 153 633 153 656 c 5xb4
 187 660 l 5
 187 629 199 603 256 603 c 7
 313 603 325 629 325 660 c 5xca
 359 656 l 5
 359 633 345 573 256 573 c 7xa4
229 656 m 5
 153 656 l 5
 153 734 l 5
 229 734 l 5
 229 656 l 5
359 656 m 5
 283 656 l 5
 283 734 l 5
 359 734 l 5
 359 656 l 5
513 440 m 1x30
 181 30 l 1
 110 30 l 1
 110 43 l 1
 460 476 l 1
 513 453 l 1
 513 440 l 1x30
522 -4 m 1
 456 -4 l 1
 456 734 l 1
 522 734 l 1xb0
 522 -4 l 1
110 30 m 1
 96 30 l 1
 96 476 l 1
 162 476 l 17
 162 64 l 1
 110 30 l 1
EndSplineSet
LCarets2: 1 0
Ligature2: "ProbingFulikaSans-Light-liga-1" k uni030C
EndChar
StartChar: m_uni030C
Encoding: 65564 -1 161
Width: 620
Flags: W
HStem: 0 21G<96 189.631>
VStem: 96 66<13 506> 110 52<0 13> 456 66<-178 493>
LayerCount: 2
Fore
SplineSet
306 573 m 7xa4
 217 573 203 633 203 656 c 5xb4
 237 660 l 5
 237 629 249 603 306 603 c 7
 363 603 375 629 375 660 c 5xca
 409 656 l 5
 409 633 395 573 306 573 c 7xa4
279 656 m 5
 203 656 l 5
 203 734 l 5
 279 734 l 5
 279 656 l 5
409 656 m 5
 333 656 l 5
 333 734 l 5
 409 734 l 5
 409 656 l 5
512 493 m 1xb0
 176 0 l 1
 110 0 l 1
 110 13 l 1
 445 506 l 1
 512 506 l 1
 512 493 l 1xb0
522 -178 m 1
 456 -178 l 25
 456 506 l 1
 522 506 l 1
 522 -178 l 1
162 0 m 1
 96 0 l 25
 96 506 l 1
 162 506 l 25xd0
 162 0 l 1
EndSplineSet
LCarets2: 1 0
Ligature2: "ProbingFulikaSans-Light-liga-1" m uni030C
EndChar
StartChar: oe_acutecomb
Encoding: 65567 -1 164
Width: 550
Flags: HW
HStem: -4 60<217.087 407.518> 29 61<385.981 443> 418 67<371.75 441> 450 60<213.585 408.908>
VStem: 62 66<149.777 356.678>
LayerCount: 2
Fore
SplineSet
445 746 m 5
 265 586 l 5
 222 586 l 5
 222 596 l 5
 364 766 l 5
 445 766 l 5
 445 746 l 5
147 258 m 1
 268 271 291 295 305 413 c 1
 315 413 l 1
 329 295 352 271 473 258 c 1
 473 248 l 1
 352 235 329 211 315 93 c 1
 305 93 l 1
 291 211 268 235 147 248 c 1
 147 258 l 1
463 29 m 1x48
 422 8 366 -4 311 -4 c 3
 187 -4 62 65 62 249 c 3
 62 427 183 510 305 510 c 3x98
 361 510 415 501 461 485 c 1
 461 418 l 1
 452 418 l 1x28
 406 438 360 450 303 450 c 3
 213 450 128 391 128 251 c 3
 128 114 220 56 313 56 c 3x98
 359 56 410 66 451 90 c 1
 463 90 l 1
 463 29 l 1x48
EndSplineSet
LCarets2: 1 0
Ligature2: "ProbingFulikaSans-Light-liga-1" oe acutecomb
EndChar
StartChar: p_dagger
Encoding: 65570 -1 167
Width: 670
Flags: W
HStem: -6 60<250.643 423.467> 211 60<309.688 506.854> 450 60<304.646 445.946> 680 60<383.678 535>
VStem: 68 66<186.606 449.812> 208 67<302.246 420.565> 510 66<151.651 379.168>
LayerCount: 2
Back
SplineSet
525 740 m 2
 535 740 l 1
 535 680 l 1
 300 680 134 560 134 314 c 0
 134 153 212 54 335 54 c 0
 451 54 507 135 507 253 c 0
 507 379 455 450 351 450 c 0
 305 450 273 436 241 416 c 1
 217 472 l 1
 253 497 297 510 351 510 c 0
 483 510 573 414 573 258 c 0
 573 104 489 -6 335 -6 c 0
 167 -6 68 115 68 309 c 0
 68 585 258 740 525 740 c 2
477 280 m 2
 623 280 l 1
 623 220 l 1
 471 220 l 2
 350 220 208 255 208 401 c 3
 208 422 211 446 217 472 c 1
 283 465 l 1
 279 445 275 425 275 408 c 3
 275 292 389 280 477 280 c 2
EndSplineSet
Fore
SplineSet
198 865 m 1x10
 198 875 l 1
 258 875 l 5
 546 516 l 1
 546 506 l 1
 489 506 l 1
 198 865 l 1x10
202 708 m 1x30
 192 708 l 1
 192 757 l 1
 379 868 l 1
 389 868 l 1
 389 817 l 1
 202 708 l 1x30
364 510 m 3
 499 510 576 424 576 268 c 0
 576 114 491 -6 337 -6 c 0
 174 -6 68 115 68 309 c 0
 68 585 258 740 525 740 c 9
 535 740 l 1
 535 680 l 1
 300 680 134 560 134 314 c 0
 134 153 216 54 337 54 c 0
 453 54 510 145 510 263 c 0
 510 389 461 450 367 450 c 3
 311 450 275 410 275 363 c 3
 275 287 338 271 414 271 c 3
 488.802734375 271 574 274 623 280 c 1
 623 270 l 1
 613 220 l 1
 559 213 493.411132812 211 410 211 c 3
 319 211 208 240 208 361 c 3
 208 454 281 510 364 510 c 3
EndSplineSet
LCarets2: 1 0
Ligature2: "ProbingFulikaSans-Light-liga-1" p dagger
EndChar
StartChar: umacron_acutecomb
Encoding: 65575 -1 172
Width: 590
Flags: W
HStem: -4 60<215.907 377.084> 450 60<212.515 373.717>
VStem: 62 66<146.581 356.678> 462 66<149.322 359.419>
LayerCount: 2
Fore
SplineSet
289 573 m 3xa4
 200 573 186 633 186 656 c 1xb4
 220 660 l 1
 220 629 232 603 289 603 c 3
 346 603 358 629 358 660 c 1xca
 392 656 l 1
 392 633 378 573 289 573 c 3xa4
262 656 m 1
 186 656 l 1
 186 734 l 1
 262 734 l 1
 262 656 l 1
392 656 m 1
 316 656 l 1
 316 734 l 1
 392 734 l 1
 392 656 l 1
413 855 m 1
 233 695 l 1
 190 695 l 1
 190 705 l 1
 332 875 l 1
 413 875 l 1
 413 855 l 1
299 -4 m 3
 176 -4 62 69 62 249 c 3
 62 422 169 510 290 510 c 3
 414 510 528 437 528 257 c 3
 528 84 421 -4 299 -4 c 3
288 450 m 3
 199 450 128 376 128 251 c 3
 128 119 209 56 301 56 c 3
 391 56 462 130 462 255 c 3
 462 387 381 450 288 450 c 3
EndSplineSet
LCarets2: 1 0
Ligature2: "ProbingFulikaSans-Light-liga-1" umacron acutecomb
EndChar
